<svg version="1.1" id="Layer_1" xmlns="http://www.w3.org/2000/svg" xmlns:xlink="http://www.w3.org/1999/xlink" x="0px" y="0px"
	 width="100%" viewBox="0 0 1024 1024" enable-background="new 0 0 1024 1024" xml:space="preserve">
<path fill="#000000" opacity="1.000000" stroke="none" 
	d="
M917.347961,607.979431 
	C916.271912,643.830872 906.678467,676.979309 891.190308,708.549011 
	C872.894592,745.841370 846.411316,776.478027 814.616150,802.889832 
	C772.275818,838.061340 723.697205,862.480774 674.225525,885.522705 
	C631.354675,905.490234 588.234375,924.994568 547.229797,948.719421 
	C536.410461,954.979309 525.730286,961.489746 516.661804,970.247803 
	C514.704651,972.138000 512.943115,972.691406 510.605347,970.739929 
	C479.147278,944.480591 441.791077,928.425842 405.626923,910.359802 
	C367.786102,891.456116 328.724792,875.046509 291.465820,854.951233 
	C254.079514,834.787231 218.871964,811.484680 188.372131,781.625183 
	C148.417435,742.509277 122.930794,695.682434 112.471703,640.574219 
	C105.296463,602.768372 109.577858,565.844421 118.934265,529.096252 
	C127.275620,496.334686 139.295395,464.732056 149.249924,432.479004 
	C156.703918,408.327789 163.660568,384.033661 167.428284,359.004395 
	C173.833221,316.455902 165.407349,276.659698 144.133224,239.449249 
	C138.670609,229.894592 132.616165,220.707977 125.922638,211.971024 
	C123.389526,208.664581 123.798485,206.415298 126.789223,203.483887 
	C157.247147,173.630447 187.621262,143.690689 217.859131,113.614517 
	C221.986008,109.509697 225.451172,108.277367 231.368927,110.500946 
	C255.415268,119.536255 280.299530,125.201332 305.923279,127.811066 
	C372.252899,134.566605 434.387421,122.190369 491.786285,87.747215 
	C497.210327,84.492439 502.531342,81.030449 507.662079,77.334160 
	C511.422760,74.624878 514.465088,74.501312 518.420288,77.281975 
	C540.609436,92.881622 564.350708,105.561607 590.148804,114.168617 
	C614.666138,122.348335 639.708191,127.739326 665.558472,129.873199 
	C711.008972,133.625031 754.789551,127.334984 796.869934,109.750214 
	C800.941467,108.048775 803.036499,109.875641 805.510559,112.290398 
	C829.001770,135.217941 852.509583,158.128647 876.044006,181.011841 
	C883.928833,188.678406 891.838074,196.322708 899.870667,203.833389 
	C903.096497,206.849762 903.527161,208.989380 900.418701,212.886353 
	C877.759644,241.293915 863.323975,273.284149 858.146851,309.515350 
	C853.959106,338.823425 858.742981,367.101166 865.854675,395.264465 
	C874.048218,427.712189 885.750000,459.058624 896.005798,490.858978 
	C903.254944,513.336548 909.805054,536.004089 913.746704,559.332336 
	C916.438049,575.260620 917.939087,591.299255 917.347961,607.979431 
M691.534058,679.032410 
	C703.569397,673.879761 714.464294,666.836060 724.673035,658.730530 
	C753.593262,635.768677 769.332947,605.335388 771.336853,568.942139 
	C773.442200,530.706177 773.169434,492.330017 772.532532,454.014038 
	C772.328735,441.754211 771.513245,429.473328 769.132202,417.323914 
	C765.153809,397.024811 756.168640,379.019165 745.253418,361.720245 
	C736.189941,347.356049 725.425476,334.529358 712.252380,323.837311 
	C674.672119,293.335052 631.269470,280.482452 583.282776,281.370178 
	C565.470215,281.699677 547.645630,281.330139 529.827759,281.456207 
	C525.974365,281.483459 524.538940,280.237854 524.591553,276.270721 
	C524.774780,262.443054 524.814331,248.608795 524.571777,234.782928 
	C524.499512,230.667633 525.976379,228.525467 529.561401,226.659943 
	C539.987976,221.234268 547.981384,213.183655 551.421326,201.798660 
	C556.248230,185.823257 550.525146,172.867310 538.596924,161.999832 
	C527.158264,151.578445 507.865936,149.319977 494.836273,157.117981 
	C478.879791,166.667648 470.763458,184.253159 475.164795,200.205429 
	C478.175781,211.118393 484.273285,220.046585 494.587799,224.995804 
	C500.833099,227.992462 502.737122,231.939819 502.448853,238.610703 
	C501.931427,250.584991 502.339020,262.598602 502.329895,274.595764 
	C502.324738,281.331573 502.297516,281.365723 495.746948,281.375366 
	C478.417664,281.400940 461.072845,280.942078 443.763672,281.535767 
	C428.501495,282.059265 413.146484,281.986053 398.038574,284.913818 
	C358.846924,292.508820 325.893951,311.314270 298.362793,340.041809 
	C268.744537,370.947205 253.596191,407.410156 254.212997,450.520233 
	C254.732620,486.837799 254.338852,523.168518 254.334396,559.493408 
	C254.333206,569.165710 255.343430,578.725891 257.352448,588.183899 
	C269.386536,644.838318 320.867065,687.285278 378.696014,687.647583 
	C442.996155,688.050476 507.301971,687.693787 571.599548,688.289062 
	C596.429932,688.518982 621.232239,687.971619 646.047852,687.831848 
	C661.549866,687.744568 676.455078,685.048218 691.534058,679.032410 
M703.649170,812.500061 
	C703.649353,795.001892 704.068115,777.490845 703.529236,760.009277 
	C703.013733,743.287720 695.646362,730.015808 681.098206,721.095703 
	C670.571228,714.641235 658.784241,713.482544 646.947510,713.463745 
	C559.956543,713.325806 472.965210,713.415405 385.974091,713.347534 
	C377.950592,713.341248 370.028748,714.061401 362.153137,715.387878 
	C338.369324,719.393372 321.366486,739.582642 321.353760,763.742981 
	C321.341370,787.240601 321.410828,810.738525 321.282745,834.235474 
	C321.264801,837.531006 322.268280,839.332336 325.330780,840.710938 
	C341.425995,847.956360 357.424805,855.415955 373.460815,862.793030 
	C417.815308,883.197693 462.047119,903.909973 503.141846,930.459534 
	C511.138916,935.626099 516.021057,935.354248 523.815063,930.227905 
	C559.115356,907.009827 597.414368,889.269470 635.520874,871.271057 
	C656.599915,861.315002 677.891785,851.807556 699.146912,842.229187 
	C702.489075,840.722961 703.856995,838.713623 703.720764,834.995117 
	C703.458618,827.838806 703.647156,820.666077 703.649170,812.500061 
M203.711121,570.784485 
	C211.652939,578.539551 220.878677,583.450195 232.683838,584.279114 
	C232.683838,582.037292 232.645096,580.401794 232.689728,578.768555 
	C233.231598,558.945496 231.561813,539.161377 231.672470,519.344482 
	C231.835159,490.213959 231.055466,461.072388 232.671310,431.959778 
	C233.453110,417.873962 231.813690,416.237701 217.610992,422.991150 
	C197.755005,432.432709 188.815536,449.731232 188.513901,471.073395 
	C188.205994,492.859131 187.575653,514.669922 189.170364,536.472107 
	C190.120529,549.462402 194.502289,560.685852 203.711121,570.784485 
M827.986389,563.489746 
	C835.354187,552.189819 837.441589,539.472046 837.607178,526.352356 
	C837.823608,509.200317 837.754150,492.044312 837.747925,474.890015 
	C837.745972,469.578613 837.963684,464.255798 836.652954,459.008881 
	C831.772339,439.471588 820.045654,426.406555 800.520935,420.776215 
	C795.393860,419.297699 794.100830,420.374329 794.240662,425.528900 
	C794.597534,438.675720 794.729492,451.838409 794.795593,464.975769 
	C794.989624,503.570282 795.369690,542.181519 793.422119,580.756958 
	C793.349731,582.191345 793.077881,583.779602 794.645386,585.212341 
	C808.301392,582.499268 819.476746,575.733398 827.986389,563.489746 
M769.628174,789.775757 
	C765.330933,761.336487 737.349426,730.176025 717.702148,732.253601 
	C718.012634,733.387634 718.227783,734.515808 718.626221,735.575073 
	C721.994141,744.529236 723.520935,753.734375 723.413635,763.344482 
	C723.196350,782.803040 723.329529,802.265869 723.382507,821.726746 
	C723.387207,823.454224 722.725830,825.376160 724.273193,827.041260 
	C726.176514,827.012878 727.681580,825.878906 729.255310,825.055115 
	C740.309814,819.268494 750.936340,812.765137 761.542786,806.193970 
	C767.636414,802.418579 770.695496,797.807312 769.628174,789.775757 
M256.412781,788.885681 
	C255.044037,796.762634 258.097107,801.943848 265.110046,805.989807 
	C275.199554,811.810730 284.921631,818.277100 295.386108,823.453735 
	C297.244080,824.372803 298.852142,826.094116 301.737396,825.686951 
	C301.737396,823.857605 301.738251,822.058105 301.737244,820.258606 
	C301.727203,801.929871 301.865265,783.599365 301.648041,765.273071 
	C301.527496,755.105225 303.471313,745.465027 307.324921,736.122620 
	C307.850037,734.849670 309.068451,733.539185 307.807190,731.886841 
	C305.099609,731.805420 302.648956,732.772461 300.234680,733.863342 
	C276.560638,744.560181 260.569519,761.462402 256.412781,788.885681 
z"/>
<path fill="#000000" opacity="1.000000" stroke="none" 
	d="
M530.000000,567.227783 
	C484.353912,567.224060 439.198761,567.784973 394.064209,567.061462 
	C345.966064,566.290527 304.865051,533.038513 297.953644,483.501434 
	C289.899811,425.776031 328.065918,382.681183 378.545166,371.962921 
	C383.539948,370.902405 388.809265,370.820923 393.951599,370.816315 
	C469.583313,370.748474 545.215149,370.726196 620.846863,370.800568 
	C641.865967,370.821228 662.340027,373.449524 680.828613,384.674957 
	C707.183960,400.676666 722.901367,423.686401 727.416565,454.326996 
	C735.309875,507.891449 698.317017,557.167175 643.374146,566.049500 
	C639.119873,566.737305 634.764709,567.085388 630.454773,567.099792 
	C597.136780,567.210510 563.818298,567.200134 530.000000,567.227783 
M388.788422,503.724365 
	C394.750641,506.924866 401.094482,508.992889 407.878448,508.571045 
	C430.502380,507.164307 447.087646,485.827423 442.629181,463.532288 
	C439.534576,448.057190 429.473694,438.181702 414.730896,433.842682 
	C400.136780,429.547394 387.215454,434.270264 377.148254,445.183655 
	C361.092743,462.588684 366.606567,490.513763 388.788422,503.724365 
M635.101868,436.369537 
	C627.934326,433.440704 620.757202,431.712433 612.791626,433.179962 
	C592.664856,436.887939 578.304504,457.287628 582.636047,477.410522 
	C587.082520,498.067719 607.004028,512.323669 626.648071,507.719757 
	C644.366577,503.567169 658.442810,486.663696 657.565308,468.591949 
	C656.843018,453.714691 648.159363,443.835083 635.101868,436.369537 
z"/>
<path fill="#000000" opacity="1.000000" stroke="none" 
	d="
M604.335571,620.942871 
	C603.523376,634.550842 594.190369,642.865051 580.806152,642.349548 
	C569.052979,641.896851 560.392822,632.046631 560.666992,619.442810 
	C560.920410,607.789001 570.567688,598.891174 583.157043,598.699768 
	C595.075134,598.518494 603.973694,607.676819 604.335571,620.942871 
z"/>
<path fill="#000000" opacity="1.000000" stroke="none" 
	d="
M463.404724,611.989075 
	C467.738678,624.888672 463.235657,635.921692 452.099854,640.393982 
	C440.610779,645.008179 428.675110,640.534302 423.524933,629.683228 
	C418.819183,619.768494 422.406952,607.161072 431.359253,602.153564 
	C442.841675,595.730652 455.023041,598.302795 461.598694,608.559143 
	C462.223816,609.534180 462.715210,610.594849 463.404724,611.989075 
z"/>
<path fill="#000000" opacity="1.000000" stroke="none" 
	d="
M509.643951,599.131714 
	C523.887939,597.722473 535.240479,607.388855 535.246460,620.450562 
	C535.252380,633.351135 524.686584,643.048950 511.379761,642.356567 
	C501.631195,641.849365 492.539001,633.470398 491.684845,624.206726 
	C490.443909,610.747681 496.247040,602.500122 509.643951,599.131714 
z"/>
</svg>